<svg xmlns="http://www.w3.org/2000/svg" viewBox="0 0 200 200">
    <path
        d="M54.465 181.007c0 -13.936 -1.819 -34.179 -2.829 -39.507 -0.086 -0.453 -0.821 -0.345 -0.81 0.109 0.355 7.953 1.28 10.2 2 28.72 0.041 1.115 0.429 11.877 0.227 13.83a2.3 2.3 0 0 1 -1.371 2.214c-1.69 0.515 -4.391 -0.877 -5.107 -5.723 -0.159 -1.064 -2.682 -27.277 -2.84 -28.9 -3.349 -34.6 -4.463 -40.4 -1.727 -40.813 2.947 -0.453 4.589 2.818 5.053 5.183a0.491 0.491 0 0 0 0.961 -0.13c-0.238 -2.8 -1.652 -5.8 -4.665 -6.4a3.826 3.826 0 0 0 -2.763 0.356c-1.7 1.058 -1.512 3.638 -1.523 5.355 -0.025 4.027 -0.315 1.033 5.83 63.508 0.216 2.181 0.443 4.481 1.663 6.359 2.519 3.874 7.377 3.7 7.871 -0.777a25.218 25.218 0 0 0 0.03 -3.384Z"
        fill="#191919" stroke-width="1.0000" />
    <path
        d="M69.505 157.35a0.385 0.385 0 0 0 -0.767 0.022c-0.1 4.212 -0.181 24.727 -1.069 27.608 -0.529 1.727 -2.408 1.825 -3.606 0.669 -1.95 -1.893 -2.327 -7.044 -2.375 -9.76 -0.123 -5.843 0.251 -9.749 -0.281 -22.037 -0.554 -12.829 -2.139 -24.431 -1.976 -34.993 0.022 -1.641 -0.162 -3.628 0.432 -5.193 0.678 -1.778 4.215 -1.208 4.544 -0.963 1.639 1.219 1.977 3.219 2.107 5.13 0.116 1.73 0.053 1.339 0.972 19.726a10.467 10.467 0 0 0 0.5 3.715c0.109 0.248 0.454 0.14 0.529 -0.065 0.432 -1.274 0.141 -2.969 0.076 -4.3 -0.968 -17.947 -0.718 -18 -1.22 -20.568 -0.328 -1.724 -1.081 -3.395 -2.764 -4.1a0.39 0.39 0 0 0 -0.345 -0.563c-1.544 0.033 -3.11 -0.9 -4.514 0.173a4.5 4.5 0 0 0 -1.392 3.336c-0.783 9.1 1.173 24.978 1.76 36.7 0.665 13.218 0.213 18.186 0.377 24.294 0.085 2.923 0.512 7.772 2.473 10.03a3.856 3.856 0 0 0 3.66 1.339 3.317 3.317 0 0 0 2.365 -2.97 178.35 178.35 0 0 0 0.514 -27.23Z"
        fill="#191919" stroke-width="1.0000" />
    <path
        d="M85.787 114.162a4.645 4.645 0 0 0 -4.405 -2.817 4.476 4.476 0 0 0 -3.952 3.2c-0.358 1.242 -0.262 2.017 -0.216 7.9 0.032 2.8 0.118 5.571 0.248 8.367a0.249 0.249 0 0 0 0.5 0c0.216 -4.5 0.259 -9 0.291 -13.517 0.011 -1.89 0.238 -3.855 2.235 -4.622a3.322 3.322 0 0 1 4.2 1.879c0.961 1.9 0.735 4.222 0.724 6.284 -0.083 16.453 0.094 48.83 -1.512 60.129 -0.248 1.738 -0.788 3.627 -2.4 4.577a2.589 2.589 0 0 1 -3.93 -1.392c-0.691 -1.782 -0.475 -3.866 -0.464 -5.723 0.058 -6.649 0.5 -16.112 0.928 -22.652 0.033 -0.54 -0.777 -0.518 -0.831 0A214.5 214.5 0 0 0 75.9 178.1a21.9 21.9 0 0 0 0.313 5.766 4.219 4.219 0 0 0 2.818 3.239 4.526 4.526 0 0 0 4.448 -1.685c1.646 -1.975 1.771 -4.551 2.311 -12.675 0.79 -12.722 0.693 -25.331 0.809 -52.257 0.008 -2.115 0.116 -4.36 -0.812 -6.326Z"
        fill="#191919" stroke-width="1.0000" />
    <path
        d="M100.909 174.505c-0.089 1.013 -0.442 5.02 -0.568 6.048a3.248 3.248 0 0 1 -1.566 2.754 4.064 4.064 0 0 1 -2.537 0.4c-1.09 -0.292 -0.993 -1.4 -0.961 -2.3 0.083 -2.7 0.156 -5.4 0.233 -8.1q-0.651 -0.2 -1.292 -0.434 -0.128 4.434 -0.247 8.877a3.129 3.129 0 0 0 0.745 2.5 2.844 2.844 0 0 0 2.386 0.767 4.447 4.447 0 0 0 4.254 -2.98c0.3 -0.978 0.309 -1.462 0.83 -7.393q-0.64 -0.054 -1.277 -0.139Z"
        fill="#191919" stroke-width="1.0000" />
    <path
        d="M97.84 115.962a8.422 8.422 0 0 1 1.96 -3.862c0.659 -0.658 1.944 -1.382 2.764 -0.6 0.767 0.734 0.745 1.986 0.842 2.958q0.057 0.552 0.1 1.106 0.558 0 1.118 0.015 -0.077 -0.957 -0.192 -1.909a4.989 4.989 0 0 0 -0.853 -2.678 2.583 2.583 0 0 0 -3.39 -0.486c-1.959 1.017 -2.953 3.389 -3.409 5.626 0.352 -0.064 0.704 -0.12 1.06 -0.17Z"
        fill="#191919" stroke-width="1.0000" />
    <path
        d="M42.61 103.679c6.132 0.939 12.33 1.619 18.505 2.159a130.153 130.153 0 0 0 19.565 0.443c8.391 -0.52 26.163 -2.758 33.1 -7.86 -0.274 3.5 -0.142 2.067 -1.358 18.186q0.882 0.221 1.739 0.488c0.9 -11.843 1.8 -23.781 1.843 -24.375 0.087 -1.156 -1.7 -1.145 -1.781 -0.011l-0.292 3.736c-3.924 2.667 -6.567 4.162 -13.582 5.636 -21.213 4.444 -33.6 3.23 -54.817 0.615 -6.623 -0.825 -10.524 -1.628 -15.6 -5.593 -0.3 -0.237 -0.875 0.076 -0.594 0.465 2.928 4.102 8.586 5.398 13.272 6.111Z"
        fill="#191919" stroke-width="1.0000" />
    <path
        d="M107.717 174.673c-0.582 6.021 -1.079 10.287 -1.373 10.966 -0.281 0.648 -1.015 0.885 -1.619 1.166a64.145 64.145 0 0 1 -14.533 4.7c-10.952 2.211 -25.871 2.209 -34.864 1.242 -7.97 -0.848 -14.758 -3.493 -16.336 -4.913 -0.789 -0.7 -0.678 -1.641 -0.971 -4.243 -3.026 -29.356 -6.586 -49.595 -9.815 -85.631 -0.248 -2.785 -0.464 -5.56 -0.874 -8.335 -0.065 -0.475 -0.8 -0.335 -0.821 0.108 -0.429 14.936 5.858 56.539 10.106 96.2a4.289 4.289 0 0 0 1.576 3.358c1.711 1.262 5.827 2.784 7.882 3.369 14.219 4.141 46.521 3.231 60.485 -4.87 1.36 -0.788 1.587 -2.159 1.792 -3.574 0.476 -3.231 0.8 -6.486 1.106 -9.743q-0.867 0.127 -1.741 0.2Z"
        fill="#191919" stroke-width="1.0000" />
    <path
        d="M133.844 143.876c-1.027 -9.689 -6.737 -21.118 -16.573 -25.6 -10 -4.557 -24.617 -3.066 -31.549 2.138a22.743 22.743 0 0 0 -4.557 4.772c-7.957 10.808 -8.95 26.453 -1.09 37.325 7.407 10.257 22.209 14.933 34.41 10.743s20.655 -16.929 19.359 -29.378Zm-13.356 -11.629c-1.743 4.049 -8.01 11.672 -14.867 27.565a1.187 1.187 0 0 1 -1.847 0.238c-2.753 -2.6 -5.5 -5.248 -8.151 -7.947a90.6 90.6 0 0 1 -7.688 -8.216c-0.54 -0.7 0.551 -1.307 1.123 -0.864 2.926 2.289 5.517 5.1 8.227 7.644 2.322 2.17 4.621 4.373 6.921 6.554a152.921 152.921 0 0 1 10.473 -19.651 30.537 30.537 0 0 1 4.675 -6.2 0.725 0.725 0 0 1 1.134 0.877Z"
        fill="#38a1ff" stroke-width="1.0000" />
    <path
        d="M69.8 43.5c-1.333 -0.763 -3.39 0.108 -4.75 0.475 -10.607 2.876 -13.171 3.54 -16.12 4.675a0.381 0.381 0 0 0 0.194 0.735c5.205 -0.886 15.452 -4.081 18.3 -4.665a6.619 6.619 0 0 0 2.375 -0.637 0.351 0.351 0 0 0 0.001 -0.583Z"
        fill="#191919" stroke-width="1.0000" />
    <path
        d="M72.647 56.766c-0.778 -0.083 -0.5 -0.036 -9.318 2.321a90.092 90.092 0 0 0 -9.393 2.764 0.421 0.421 0 0 0 0.226 0.81 90.447 90.447 0 0 0 9.523 -2.311c1.566 -0.4 6.187 -1.63 6.932 -1.835a6.8 6.8 0 0 0 2.289 -0.8 0.515 0.515 0 0 0 -0.259 -0.949Z"
        fill="#191919" stroke-width="1.0000" />
    <path
        d="M75.508 64.432a4.743 4.743 0 0 0 -2.375 0.345c-4.5 1.232 -13.321 3.769 -17.891 5.355a0.4 0.4 0 1 0 0.227 0.767c4.769 -1.024 11.578 -2.944 18.063 -4.772a4.76 4.76 0 0 0 2.192 -0.918 0.457 0.457 0 0 0 -0.216 -0.777Z"
        fill="#191919" stroke-width="1.0000" />
    <path
        d="M94.446 38.648a31.731 31.731 0 0 1 -14.576 4.881 24.859 24.859 0 0 0 -6.748 0.993c-1.393 0.475 -3.466 1.144 -3.865 2.753 -0.335 1.361 0.237 4.308 2.083 4.287a0.325 0.325 0 0 0 0.227 -0.551 4.943 4.943 0 0 1 -1.058 -2.667c-0.054 -1.026 0.5 -1.425 1.35 -1.857a17.054 17.054 0 0 1 7.241 -1.565c5.658 -0.217 11.46 -2.017 15.732 -5.8 0.254 -0.222 -0.095 -0.646 -0.386 -0.474Z"
        fill="#191919" stroke-width="1.0000" />
    <path
        d="M76.631 46.347a5.294 5.294 0 0 0 -2.17 0.28 4.164 4.164 0 0 0 -2.095 0.929 0.36 0.36 0 0 0 0.248 0.605 9.131 9.131 0 0 0 2.753 -0.519c0.476 -0.1 1.016 -0.27 1.4 0.108s0.324 1.145 0.313 1.641a0.6 0.6 0 0 0 1.209 0c0.011 -1.209 -0.233 -2.764 -1.658 -3.044Z"
        fill="#191919" stroke-width="1.0000" />
    <path
        d="M68.587 51.259c-6.437 1.271 -11.8 1.5 -15.731 4.071 -0.346 0.227 -0.14 0.853 0.291 0.7a48.753 48.753 0 0 1 10.938 -2.786c0.424 -0.069 5.313 -0.861 5.722 -1.026a6.546 6.546 0 0 1 -1.22 -0.959Z"
        fill="#191919" stroke-width="1.0000" />
    <path
        d="M172.54 32.807c-7.164 1.961 -26.82 11.137 -47.215 9.718a132.919 132.919 0 0 0 -5.712 -16.9c-0.075 -0.194 -0.518 -0.993 -0.464 -1.133 0.065 -0.173 0.679 -0.327 0.853 -0.411 11.224 -5.37 20.672 -9.011 31.106 -14.629a36.489 36.489 0 0 0 5.82 -3.574c0.389 -0.313 -0.032 -1.026 -0.5 -0.853a53.271 53.271 0 0 0 -5.744 2.807c-10.658 5.547 -24.954 11.718 -31.57 14.759 -0.67 0.3 -1.4 0.594 -1.62 1.371a3.247 3.247 0 0 0 0.443 2.16 56.843 56.843 0 0 1 -9.426 1.047 182.918 182.918 0 0 1 -19.65 -0.486c-7.963 -0.342 -8.73 1.658 -10.672 4.327q-1.315 -4.891 -2.889 -9.71a0.642 0.642 0 0 0 -0.778 -0.443c-12.256 2.533 -34.849 7.922 -39.765 9.08a0.81 0.81 0 0 0 -1.144 0.842c2.227 15.611 7.344 31.914 10.875 47.246 0.022 0.108 2.419 8.152 3.25 10.948h-0.011c0.033 0.13 0.087 0.313 0.162 0.518 0.076 0.26 0.119 0.411 0.119 0.421l0.022 -0.021c0.1 0.259 0.194 0.529 0.28 0.777a0.651 0.651 0 0 0 0.756 0.432c7.914 -1.695 23.894 -6.359 31.085 -8.918 3.034 -1.08 6.022 -2.305 9.015 -3.5a0.712 0.712 0 0 0 0.5 -0.853c-2.224 -7.245 -4.384 -16.477 -6.036 -23.862 -0.475 -0.032 -0.939 -0.075 -1.414 -0.129 1.847 8.288 3.477 15.644 5.917 23.775 -9.372 3.833 -27.576 8.605 -38.47 10.959C47.058 77.453 39.554 54.261 37.3 43.28q-1.263 -6.122 -2.181 -12.308c11.957 -2.154 3.751 -1.385 39.161 -8.768 1.706 5.323 3.833 14.631 5.128 20.062 0.465 0.053 0.918 0.1 1.383 0.151 -0.736 -3.041 -1.1 -5.786 -2.387 -10.625C80.2 30.106 80 27.64 88.313 27.97c4.5 0.188 9.945 0.912 19.5 0.572 2.39 -0.088 8.368 -0.44 10.646 -1.176A135.654 135.654 0 0 1 122.9 40.3c-5.925 0.029 -13.516 4.833 -16.5 6.7 -4.716 2.961 -9.891 6.132 -15.558 6.132 -3.611 0 -7.038 -1.679 -10.635 -2.008 -1.642 -0.151 -3.607 -0.108 -4.924 0.993 -0.334 0.281 0.043 0.691 0.378 0.648 0.767 -0.108 1.512 -0.313 2.289 -0.378 4.94 -0.371 9.9 3.488 17.5 1.544 9.035 -2.337 14.348 -9.307 24.509 -11.769 1.08 -0.259 2.235 -0.28 3.325 -0.5 0.173 0.637 0.346 1.263 0.519 1.9a0.866 0.866 0 0 0 0.831 0.626c13.086 1.037 25.935 -2.159 38.243 -6.284 3.423 -1.144 6.943 -2.224 10.236 -3.692 0.831 -0.368 0.248 -1.632 -0.573 -1.405Z"
        fill="#191919" stroke-width="1.0000" />
    <path
        d="M92.729 78.457a2.841 2.841 0 0 1 -0.129 1.037c-0.454 1.36 -1.836 1.964 -3.089 2.386 -10.34 3.438 -27.1 7.554 -36.774 9.976 -1.512 0.378 -3.217 0.972 -4.772 0.529a4.191 4.191 0 0 1 -2.624 -2.885 91.166 91.166 0 0 1 -2.526 -9.944c-2.484 0.486 -4.956 1.08 -7.4 1.76 -2.646 0.734 -5.723 2.105 -6.144 4.945 -0.432 2.937 2.311 5.269 4.891 6.478 11.783 5.515 38.973 5.579 52.063 5.053a86.05 86.05 0 0 0 12.449 -1.176c4.644 -0.864 17.531 -4.51 17.9 -9.232 0.55 -6.495 -17.381 -8.378 -23.845 -8.927Z"
        fill="#191919" stroke-width="1.0000" />
</svg>
